<?xml version="1.0" standalone="no"?>
<!DOCTYPE svg PUBLIC "-//W3C//DTD SVG 20010904//EN"
 "http://www.w3.org/TR/2001/REC-SVG-20010904/DTD/svg10.dtd">
<svg version="1.0" xmlns="http://www.w3.org/2000/svg"
 width="998.000000pt" height="976.000000pt" viewBox="0 0 998.000000 976.000000"
 preserveAspectRatio="xMidYMid meet">

<g transform="translate(0.000000,976.000000) scale(0.100000,-0.100000)"
fill="#000000" stroke="none">
<path d="M1666 7568 c9 -18 28 -50 40 -70 13 -20 75 -126 138 -235 62 -109
204 -353 314 -543 l201 -345 -950 -5 -949 -5 131 -225 c72 -124 209 -358 303
-520 95 -162 248 -425 341 -585 92 -159 246 -423 340 -585 95 -162 245 -421
335 -575 89 -154 249 -428 355 -610 106 -181 255 -438 332 -570 408 -703 527
-905 529 -902 1 1 79 135 174 297 95 162 196 336 225 385 29 50 110 189 181
310 299 515 361 619 371 622 5 2 15 -7 21 -19 15 -31 38 -71 247 -428 337
-577 481 -825 581 -997 84 -146 101 -170 111 -156 7 9 49 79 94 157 45 78 160
274 254 436 393 675 523 898 554 952 18 32 36 58 40 58 5 0 70 -107 146 -237
77 -131 224 -384 328 -563 483 -831 478 -822 493 -803 7 10 14 21 14 24 0 4
75 135 167 290 91 156 177 304 191 329 14 25 93 162 177 305 400 684 474 813
495 850 12 22 70 121 128 220 58 99 144 248 192 330 47 83 142 245 210 360 67
116 132 226 143 245 10 19 85 148 165 285 80 138 224 385 320 550 96 165 236
406 312 535 l137 235 -948 3 c-522 1 -949 4 -949 7 0 2 73 131 163 287 90 156
178 310 197 343 19 33 41 71 51 85 9 14 58 99 109 190 52 91 113 198 137 238
24 41 43 76 43 78 0 2 -571 4 -1270 4 l-1269 0 -17 -32 c-9 -18 -80 -141 -157
-273 -131 -225 -297 -512 -355 -615 -14 -25 -73 -126 -130 -225 -58 -99 -116
-200 -130 -225 -40 -73 -43 -75 -62 -43 -10 15 -109 186 -220 378 -112 193
-272 467 -355 610 -83 143 -173 297 -199 343 l-48 82 -1269 0 -1270 0 17 -32z
m2388 -836 c99 -169 234 -399 299 -512 114 -196 194 -332 304 -522 l51 -86
-51 -89 c-27 -48 -128 -221 -222 -383 -95 -162 -212 -364 -260 -448 -49 -84
-91 -155 -95 -157 -6 -3 -181 292 -765 1290 -84 143 -186 319 -227 390 -41 72
-151 261 -245 420 -93 160 -184 316 -202 348 l-32 57 633 0 633 0 179 -308z
m3386 303 c0 -2 -86 -152 -191 -332 -187 -319 -261 -447 -464 -798 -95 -165
-294 -507 -378 -650 -23 -38 -49 -84 -58 -100 -9 -17 -81 -140 -161 -275 -79
-135 -157 -269 -174 -297 -16 -29 -31 -53 -34 -53 -3 0 -37 55 -76 123 -39 67
-102 174 -139 237 -199 337 -415 711 -415 720 0 6 25 55 56 108 31 53 64 111
74 127 18 32 73 127 104 178 85 146 204 350 225 388 14 26 103 177 196 338
l170 291 633 0 c347 0 632 -2 632 -5z m-4656 -1388 c55 -95 114 -197 132 -227
93 -159 279 -478 331 -570 63 -111 202 -349 313 -540 206 -350 199 -337 185
-357 -7 -10 -47 -79 -90 -153 -202 -352 -518 -896 -525 -903 -4 -5 -28 26 -53
70 -24 43 -100 173 -168 288 -67 116 -187 320 -265 455 -79 135 -155 265 -169
290 -132 225 -377 645 -398 683 -43 77 -248 429 -272 467 -40 62 -385 659
-385 665 0 3 285 5 633 5 l632 -1 99 -172z m5846 167 c0 -7 -120 -217 -273
-479 -55 -93 -118 -201 -140 -240 -41 -72 -296 -511 -537 -925 -76 -129 -217
-372 -315 -540 -461 -793 -429 -741 -443 -722 -7 9 -92 152 -189 317 -96 165
-232 397 -301 515 -70 118 -127 224 -127 235 0 11 70 139 156 285 86 146 216
369 289 495 73 127 219 376 323 555 104 179 210 361 235 405 25 44 50 86 55
93 7 9 147 12 638 12 346 0 629 -3 629 -6z m-3510 -914 c46 -80 172 -296 280
-480 108 -184 211 -360 228 -391 l32 -57 -136 -233 c-125 -215 -331 -571 -441
-762 -25 -43 -50 -76 -56 -74 -11 3 -31 36 -381 633 -135 231 -246 427 -246
435 0 8 6 23 14 34 7 11 145 245 306 520 283 483 310 529 315 523 1 -2 40 -68
85 -148z"/>
</g>
</svg>
